<?xml version="1.0" encoding="utf-8"?>
<!-- Generator: Adobe Illustrator 19.0.0, SVG Export Plug-In . SVG Version: 6.00 Build 0)  -->
<svg version="1.1" id="Capa_1" xmlns="http://www.w3.org/2000/svg" xmlns:xlink="http://www.w3.org/1999/xlink" x="0px" y="0px"
	 viewBox="-23 146.7 548.2 548.2" style="enable-background:new -23 146.7 548.2 548.2;" xml:space="preserve">
<style type="text/css">
	.st0{fill:#811553;}
</style>
<g>
	<g>
		<path class="st0" d="M503.8,277.8c-14.3-14.3-31.5-21.4-51.7-21.4h-64l-14.6-38.8c-3.6-9.3-10.2-17.4-19.8-24.1
			c-9.6-6.8-19.5-10.1-29.6-10.1H178c-10.1,0-19.9,3.4-29.6,10.1c-9.6,6.8-16.2,14.8-19.8,24.1L114,256.4h-64
			c-20.2,0-37.4,7.1-51.7,21.4C-15.9,292-23,309.3-23,329.4v255.8c0,20.2,7.1,37.4,21.4,51.7c14.3,14.3,31.5,21.4,51.7,21.4h402
			c20.2,0,37.4-7.1,51.7-21.4c14.3-14.3,21.4-31.5,21.4-51.7V329.4C525.2,309.3,518,292,503.8,277.8z M341.4,547.7
			c-25,25-55.1,37.5-90.4,37.5s-65.3-12.5-90.4-37.5c-25-25-37.5-55.2-37.5-90.4c0-35.2,12.5-65.3,37.5-90.4
			c25-25,55.1-37.5,90.4-37.5s65.3,12.5,90.4,37.5c25,25,37.5,55.1,37.5,90.4C379,492.6,366.5,522.7,341.4,547.7z"/>
		<path class="st0" d="M251.1,375.1c-22.7,0-42,8-58.1,24.1c-16.1,16.1-24.1,35.4-24.1,58.1c0,22.6,8,42,24.1,58.1
			c16.1,16.1,35.4,24.1,58.1,24.1c22.6,0,42-8,58.1-24.1c16.1-16.1,24.1-35.4,24.1-58.1c0-22.7-8-42-24.1-58.1
			C293.1,383.2,273.7,375.1,251.1,375.1z"/>
	</g>
</g>
</svg>
